<svg width="189" height="135" viewBox="0 0 189 135" fill="none" xmlns="http://www.w3.org/2000/svg">
<g opacity="0.35">
<path d="M174.331 94.6871C171.325 83.9049 180.88 83.4888 181.09 69.5955C181.176 63.9131 178.063 58.126 170.573 55.4715C166.892 54.1671 163.223 53.2702 159.947 51.196C152.484 46.4685 152.619 37.474 150.583 29.8063C146.111 12.9646 111.081 -0.424915 93.6613 0.0103174C81.1038 0.323749 75.3105 6.3764 63.8618 17.0355C56.0284 24.3289 42.2264 23.6675 46.2483 42.5112C49.8304 59.2952 41.3795 58.0488 33.6407 64.2452C25.9182 70.4286 20.263 77.8044 23.3365 86.1757C26.7258 95.4069 5.97956 100.705 2.27968 112.671C-0.229804 120.787 12.9526 121.473 21.924 121.473C30.8954 121.473 107.654 120.783 140.121 121.743C148.859 122.002 176.739 124.382 180.683 113.488C183.368 106.074 176.43 102.217 174.331 94.6871Z" fill="#C3ECFE"/>
</g>
<path d="M184.296 91.329C177.807 106.429 165.307 118.753 150.323 125.434" stroke="#C3ECFE" stroke-width="1.393" stroke-miterlimit="10"/>
<path d="M182.391 95.346C184.657 93.4601 186.207 90.735 186.671 87.824C186.785 87.1103 186.808 86.2979 186.329 85.7575C186.197 85.6089 186.023 85.4863 185.825 85.466C185.507 85.4339 185.226 85.6678 185.014 85.9069C183.887 87.1736 183.496 88.9251 183.302 90.6096C183.109 92.2937 182.741 93.5295 182.391 95.346Z" fill="#C3ECFE"/>
<path d="M179.31 100.49C180.642 97.8604 180.985 94.7435 180.257 91.8869C180.078 91.1869 179.777 90.4314 179.122 90.1257C178.942 90.0416 178.734 89.9978 178.544 90.0579C178.239 90.1545 178.075 90.4805 177.975 90.7842C177.442 92.394 177.778 94.1573 178.268 95.78C178.759 97.4036 178.911 98.6837 179.31 100.49Z" fill="#C3ECFE"/>
<path d="M174.776 106.818C176.42 104.371 177.141 101.319 176.767 98.3951C176.676 97.6785 176.469 96.8921 175.857 96.5084C175.689 96.4028 175.487 96.3342 175.292 96.3708C174.977 96.4292 174.774 96.7329 174.638 97.022C173.912 98.5546 174.03 100.345 174.318 102.016C174.607 103.687 174.601 104.976 174.776 106.818Z" fill="#C3ECFE"/>
<path d="M169.566 112.363C171.21 109.915 171.931 106.864 171.557 103.94C171.466 103.223 171.259 102.437 170.647 102.053C170.479 101.947 170.277 101.879 170.081 101.915C169.767 101.974 169.564 102.277 169.427 102.566C168.702 104.099 168.82 105.89 169.108 107.56C169.397 109.232 169.39 110.521 169.566 112.363Z" fill="#C3ECFE"/>
<path d="M161.762 118.762C163.65 116.498 164.684 113.538 164.615 110.591C164.598 109.868 164.474 109.064 163.905 108.619C163.749 108.497 163.555 108.408 163.357 108.424C163.038 108.45 162.805 108.73 162.639 109.004C161.759 110.453 161.69 112.247 161.804 113.938C161.917 115.63 161.778 116.912 161.762 118.762Z" fill="#C3ECFE"/>
<path d="M155.648 122.849C157.505 120.833 158.705 118.022 158.959 115.088C159.021 114.369 159 113.556 158.56 113.045C158.439 112.905 158.283 112.792 158.111 112.784C157.836 112.77 157.606 113.02 157.435 113.271C156.528 114.602 156.278 116.374 156.196 118.066C156.113 119.76 155.858 121.015 155.648 122.849Z" fill="#C3ECFE"/>
<path d="M177.767 102.755C180.757 103.248 183.983 102.63 186.671 101.047C187.33 100.659 188.013 100.135 188.153 99.4043C188.191 99.2034 188.181 98.9869 188.072 98.8209C187.896 98.5537 187.526 98.4933 187.194 98.4884C185.437 98.462 183.748 99.328 182.24 100.302C180.732 101.275 179.482 101.814 177.767 102.755Z" fill="#C3ECFE"/>
<path d="M174.103 107.543C176.889 108.736 180.169 108.905 183.158 108.01C183.89 107.791 184.679 107.445 184.989 106.769C185.074 106.583 185.116 106.37 185.05 106.183C184.943 105.881 184.598 105.734 184.277 105.651C182.577 105.206 180.73 105.643 179.033 106.229C177.337 106.814 175.994 107.039 174.103 107.543Z" fill="#C3ECFE"/>
<path d="M168.631 113.128C171.122 114.854 174.302 115.675 177.409 115.396C178.171 115.328 179.012 115.147 179.451 114.546C179.572 114.381 179.656 114.181 179.628 113.985C179.584 113.668 179.275 113.455 178.977 113.308C177.4 112.532 175.504 112.592 173.724 112.826C171.945 113.06 170.585 113.012 168.631 113.128Z" fill="#C3ECFE"/>
<path d="M160.976 119.576C163.788 120.706 167.071 120.803 170.038 119.841C170.766 119.606 171.546 119.242 171.841 118.559C171.922 118.371 171.96 118.158 171.889 117.972C171.775 117.673 171.427 117.534 171.104 117.457C169.395 117.049 167.558 117.528 165.875 118.151C164.192 118.775 162.855 119.03 160.976 119.576Z" fill="#C3ECFE"/>
<path d="M154.786 123.272C156.788 125.547 159.676 127.111 162.759 127.588C163.514 127.706 164.375 127.733 164.946 127.255C165.102 127.124 165.232 126.95 165.253 126.752C165.286 126.434 165.038 126.153 164.784 125.939C163.441 124.806 161.585 124.407 159.802 124.205C158.018 124.004 156.709 123.63 154.786 123.272Z" fill="#C3ECFE"/>
<path d="M147.609 59.5636C147.529 59.5595 147.463 59.4966 147.457 59.415L147.401 58.6074C147.394 58.5193 147.461 58.4426 147.549 58.4365C147.637 58.428 147.714 58.4966 147.72 58.5851L147.777 59.3926C147.784 59.4807 147.717 59.5575 147.628 59.5636C147.622 59.5636 147.615 59.5636 147.609 59.5636Z" fill="#599FD2"/>
<path d="M151.236 96.2627L149.102 96.4129L146.727 62.0011L147.794 61.926L148.861 61.8513L151.236 96.2627Z" fill="#C3ECFE"/>
<path d="M147.81 59.0686L147.379 59.0991L146.727 62.0011L148.861 61.8513L147.81 59.0686Z" fill="#C3ECFE"/>
<path d="M43.3803 67.6324C47.1756 88.373 61.6357 106.865 80.8492 115.55" stroke="#C3ECFE" stroke-width="1.393" stroke-miterlimit="10"/>
<path d="M44.3413 71.9734C42.5528 69.6295 41.6487 66.6276 41.8456 63.6861C41.8939 62.965 42.0523 62.1677 42.6405 61.7479C42.8021 61.6326 42.9994 61.5518 43.1968 61.5761C43.5143 61.6159 43.7351 61.9066 43.889 62.1867C44.7051 63.6727 44.6961 65.4676 44.509 67.1525C44.3218 68.8374 44.4054 70.1245 44.3413 71.9734Z" fill="#C3ECFE"/>
<path d="M46.1979 77.6749C45.4858 74.8142 45.8463 71.6994 47.1935 69.0774C47.5235 68.4347 47.9856 67.7656 48.692 67.6134C48.8861 67.5716 49.0992 67.5756 49.2706 67.6763C49.5462 67.8387 49.6335 68.1928 49.664 68.5115C49.8239 70.1992 49.1037 71.8431 48.2637 73.3161C47.4237 74.7886 46.99 76.003 46.1979 77.6749Z" fill="#C3ECFE"/>
<path d="M49.2064 84.8541C48.15 82.1018 48.1272 78.9667 49.1434 76.1994C49.3923 75.5214 49.7691 74.8007 50.4516 74.5632C50.6391 74.4979 50.8515 74.4759 51.0334 74.5551C51.3269 74.6826 51.4568 75.0232 51.5258 75.3358C51.8908 76.9915 51.3768 78.7113 50.7236 80.2756C50.0699 81.8396 49.7882 83.0982 49.2064 84.8541Z" fill="#C3ECFE"/>
<path d="M53.0492 91.4208C51.9928 88.6685 51.9696 85.5334 52.9862 82.7661C53.2351 82.088 53.6119 81.3674 54.2944 81.1299C54.482 81.0645 54.6943 81.0426 54.8762 81.1218C55.1697 81.2492 55.2996 81.5903 55.3687 81.9025C55.7336 83.5582 55.2197 85.278 54.5664 86.8423C53.9127 88.4066 53.631 89.6648 53.0492 91.4208Z" fill="#C3ECFE"/>
<path d="M59.2301 99.3986C57.8944 96.7706 57.5468 93.6546 58.2711 90.7971C58.4486 90.0968 58.7486 89.3412 59.4027 89.0343C59.5825 88.9498 59.7912 88.906 59.9808 88.9657C60.2857 89.0619 60.4505 89.3875 60.5512 89.6912C61.0859 91.3002 60.7526 93.0638 60.265 94.6874C59.777 96.311 59.6272 97.5919 59.2301 99.3986Z" fill="#C3ECFE"/>
<path d="M64.2791 104.747C62.9178 102.367 62.3754 99.3593 62.7822 96.443C62.8817 95.7285 63.0835 94.9408 63.6263 94.5405C63.7757 94.4305 63.9531 94.3558 64.122 94.3858C64.394 94.4341 64.5617 94.7293 64.6726 95.0123C65.2604 96.5116 65.1082 98.2944 64.811 99.9627C64.5142 101.631 64.4834 102.912 64.2791 104.747Z" fill="#C3ECFE"/>
<path d="M47.1975 80.227C44.1728 80.0406 41.1664 78.7183 38.8985 76.5762C38.3426 76.0513 37.7937 75.3883 37.8205 74.6445C37.8278 74.4403 37.8855 74.2312 38.0292 74.0936C38.2602 73.8723 38.6346 73.8962 38.9589 73.9653C40.678 74.3315 42.131 75.5523 43.3839 76.8373C44.6364 78.1227 45.7347 78.927 47.1975 80.227Z" fill="#C3ECFE"/>
<path d="M49.7009 85.7116C46.7192 86.2528 43.4838 85.6864 40.7701 84.1476C40.1051 83.7705 39.4136 83.2577 39.2622 82.5293C39.2208 82.3292 39.2269 82.1124 39.3332 81.9447C39.5046 81.6747 39.874 81.6085 40.2053 81.598C41.9621 81.5436 43.6645 82.3816 45.1878 83.3308C46.7115 84.2792 47.9701 84.7981 49.7009 85.7116Z" fill="#C3ECFE"/>
<path d="M53.7905 92.3753C50.9774 93.5023 47.694 93.5945 44.7274 92.6294C44.0003 92.3931 43.2203 92.029 42.9264 91.3453C42.8456 91.1573 42.8082 90.9437 42.8789 90.7582C42.9926 90.4594 43.3413 90.3205 43.6641 90.2442C45.3742 89.8394 47.2101 90.3201 48.8926 90.9449C50.575 91.5702 51.912 91.8268 53.7905 92.3753Z" fill="#C3ECFE"/>
<path d="M59.8152 100.368C56.8221 100.843 53.6001 100.205 50.9213 98.6061C50.2648 98.2143 49.5848 97.6861 49.45 96.9545C49.413 96.7536 49.424 96.5367 49.534 96.3715C49.7115 96.1052 50.0821 96.0471 50.4138 96.0443C52.1714 96.0288 53.8547 96.9046 55.3565 97.8875C56.8583 98.87 58.1051 99.4165 59.8152 100.368Z" fill="#C3ECFE"/>
<path d="M65.0253 105.351C62.5666 107.122 59.4022 108.003 56.2907 107.781C55.5282 107.727 54.6833 107.561 54.233 106.969C54.1092 106.806 54.0219 106.608 54.0455 106.411C54.084 106.093 54.3889 105.874 54.6837 105.723C56.246 104.917 58.1436 104.942 59.9272 105.143C61.7103 105.344 63.07 105.271 65.0253 105.351Z" fill="#C3ECFE"/>
<path d="M5.97955 96.5937C27.0428 95.6327 48.3107 105.569 61.0892 122.341" stroke="#C3ECFE" stroke-width="1.393" stroke-miterlimit="10"/>
<path d="M10.4252 96.5551C7.73996 95.3392 4.61132 95.1325 1.78921 95.9847C1.09739 96.1938 0.356034 96.5275 0.0791424 97.1946C0.00281438 97.3781 -0.0316957 97.5884 0.0369183 97.7752C0.146944 98.0756 0.479459 98.2254 0.787613 98.3127C2.41892 98.7743 4.16594 98.3618 5.76598 97.8012C7.36562 97.2405 8.63803 97.033 10.4252 96.5551Z" fill="#C3ECFE"/>
<path d="M16.3983 97.0833C13.4507 97.0322 10.4967 98.0829 8.24418 99.9846C7.69202 100.451 7.14392 101.051 7.15407 101.773C7.15691 101.972 7.20888 102.179 7.3453 102.323C7.56535 102.555 7.93034 102.561 8.24743 102.519C9.92786 102.296 11.3684 101.225 12.6148 100.075C13.8612 98.9258 14.9468 98.2307 16.3983 97.0833Z" fill="#C3ECFE"/>
<path d="M24.0697 98.4024C21.1505 97.9911 18.0901 98.6732 15.622 100.285C15.0171 100.68 14.3996 101.209 14.3216 101.927C14.3001 102.125 14.3261 102.337 14.4442 102.496C14.6342 102.754 14.9956 102.803 15.3155 102.801C17.011 102.784 18.5712 101.897 19.9488 100.909C21.3263 99.9209 22.4891 99.3638 24.0697 98.4024Z" fill="#C3ECFE"/>
<path d="M31.3318 100.672C28.4127 100.26 25.3522 100.942 22.8842 102.554C22.2792 102.949 21.6617 103.478 21.5833 104.196C21.5618 104.394 21.5878 104.606 21.706 104.765C21.896 105.023 22.2573 105.073 22.5772 105.07C24.2727 105.054 25.8329 104.166 27.2105 103.178C28.5885 102.19 29.7512 101.633 31.3318 100.672Z" fill="#C3ECFE"/>
<path d="M40.4944 104.903C37.6337 104.192 34.5193 104.553 31.8973 105.9C31.2546 106.231 30.5856 106.693 30.4337 107.399C30.3919 107.593 30.3959 107.807 30.4966 107.978C30.659 108.253 31.0135 108.34 31.3318 108.371C33.0195 108.53 34.6634 107.809 36.136 106.969C37.6085 106.129 38.8229 105.695 40.4944 104.903Z" fill="#C3ECFE"/>
<path d="M46.8398 108.622C44.2158 107.829 41.1627 107.977 38.4124 109.028C37.7385 109.285 37.0162 109.659 36.7482 110.278C36.6747 110.448 36.6414 110.638 36.7088 110.796C36.8168 111.05 37.1424 111.147 37.4429 111.191C39.036 111.427 40.7392 110.879 42.2982 110.214C43.8569 109.55 45.0976 109.233 46.8398 108.622Z" fill="#C3ECFE"/>
<path d="M19.1096 97.4841C18.2488 94.5784 16.2846 91.9459 13.6878 90.2171C13.0512 89.7933 12.2819 89.4076 11.5636 89.6008C11.3663 89.654 11.1755 89.7571 11.0736 89.9276C10.9096 90.2025 11.0172 90.5618 11.1572 90.8622C11.9002 92.455 13.4158 93.5971 14.9497 94.5288C16.484 95.461 17.5144 96.3506 19.1096 97.4841Z" fill="#C3ECFE"/>
<path d="M25.0165 98.6915C24.874 95.6644 23.5951 92.6389 21.4863 90.3405C20.9695 89.777 20.3142 89.2187 19.5704 89.235C19.3662 89.2394 19.1563 89.2942 19.0166 89.4355C18.7921 89.6633 18.8104 90.038 18.8749 90.3632C19.2164 92.0875 20.4157 93.5581 21.6824 94.8292C22.9491 96.1004 23.7376 97.21 25.0165 98.6915Z" fill="#C3ECFE"/>
<path d="M32.4284 101.18C32.8945 98.1849 32.2469 94.9649 30.6404 92.291C30.2466 91.6353 29.7167 90.9573 28.9847 90.8245C28.7833 90.788 28.5669 90.7997 28.4021 90.9102C28.1362 91.0884 28.0793 91.4591 28.0773 91.7908C28.0667 93.5483 28.9478 95.2292 29.9348 96.7281C30.9213 98.2271 31.4719 99.4723 32.4284 101.18Z" fill="#C3ECFE"/>
<path d="M41.5703 105.255C41.3608 102.232 40.0149 99.2356 37.8554 96.9843C37.326 96.4326 36.6589 95.889 35.9155 95.9214C35.7113 95.9304 35.5026 95.9896 35.3662 96.1342C35.1466 96.3668 35.1734 96.7412 35.2448 97.0651C35.6244 98.7813 36.8562 100.225 38.151 101.468C39.4461 102.711 40.2589 103.803 41.5703 105.255Z" fill="#C3ECFE"/>
<path d="M47.5962 109.213C48.7699 106.418 48.9169 103.137 48.0022 100.155C47.7781 99.4243 47.4269 98.6383 46.7484 98.3325C46.5621 98.2485 46.3489 98.2079 46.1622 98.2753C45.8613 98.3841 45.7168 98.7304 45.6348 99.052C45.2012 100.755 45.651 102.599 46.2478 104.291C46.8451 105.984 47.0793 107.325 47.5962 109.213Z" fill="#C3ECFE"/>
<path d="M72.5461 105.506C69.4954 102.653 65.1857 101.198 61.0295 101.618C58.2147 101.902 55.1453 103.406 54.5258 106.166C54.2306 107.481 54.3341 109.225 53.0897 109.742C51.8717 110.247 50.6956 108.993 49.4451 108.573C47.3639 107.875 44.9888 110.254 45.6908 112.334C46.0099 113.28 46.8105 114.104 46.744 115.1C46.6534 116.456 44.9771 117.163 43.634 116.953C42.291 116.742 41.1054 115.958 39.788 115.623C38.4705 115.287 36.7645 115.623 36.3021 116.901C35.8875 118.047 36.6029 119.586 35.7032 120.408C35.3179 120.76 34.7601 120.833 34.2404 120.882C22.8342 121.965 10.2722 124.011 11.5486 126.037C11.8978 126.591 12.7894 126.415 13.4438 126.405C37.7214 126.025 59.7745 125.663 84.044 126.407" fill="#C3ECFE"/>
<path d="M140.811 67.371L148.009 95.5928L146.639 95.942L137.735 68.1558" fill="#88D2FF"/>
<path d="M134.151 68.0149C130.476 68.9519 126.565 66.1018 125.432 61.661C124.3 57.2202 126.369 52.8451 130.044 51.9077C133.719 50.9706 137.63 53.8207 138.763 58.2616C139.895 62.7024 137.826 67.0779 134.151 68.0149ZM130.674 54.3774C128.36 54.9673 127.116 57.9526 127.901 61.0317C128.687 64.1108 131.208 66.1359 133.521 65.5456C135.835 64.9557 137.078 61.9704 136.293 58.8913C135.508 55.8122 132.987 53.7874 130.674 54.3774Z" fill="#9BDFFF"/>
<path d="M137.935 60.1718C138.055 60.6399 140.124 68.753 140.124 68.753C140.234 69.1846 139.973 69.6239 139.541 69.7339C139.11 69.8439 138.67 69.5833 138.56 69.1517L138.313 68.1822C138.313 68.1822 137.164 65.7311 133.987 66.7417C133.987 66.7417 137.776 66.2683 137.905 66.2776C138.034 66.2874 137.816 59.7037 137.935 60.1718Z" fill="#C0EDFF"/>
<path d="M139.856 70.9685C138.744 71.2519 137.61 70.5784 137.326 69.4667C137.326 69.4667 137.195 68.7916 136.932 68.4185C136.52 67.8342 135.681 67.6146 134.145 68.0064L133.757 65.8371C134.564 65.5785 135.144 65.1895 135.794 65.235C136.141 65.1924 136.431 65.1579 136.673 65.1294C136.67 64.4648 136.657 63.5887 136.647 62.9172C136.637 62.203 137.563 61.4007 137.561 60.888C137.557 59.968 136.614 59.0386 137.756 58.886L138.879 58.7366L141.358 68.4392C141.642 69.5504 140.968 70.6852 139.856 70.9685Z" fill="#9BDFFF"/>
<path d="M141.871 67.1152L141.892 96.2405L143.305 96.2392L145.046 67.1128" fill="#88D2FF"/>
<path d="M141.598 57.7825C141.595 53.1996 144.678 49.4689 148.471 49.4664C152.263 49.4636 155.352 53.1899 155.355 57.7728C155.358 62.3557 152.275 66.0865 148.483 66.0893C144.69 66.0913 141.601 62.3655 141.598 57.7825ZM144.147 57.7805C144.149 60.9583 146.094 63.542 148.481 63.5404C150.868 63.5388 152.809 60.9518 152.807 57.7744C152.805 54.5967 150.86 52.0129 148.473 52.0149C146.085 52.0161 144.144 54.6027 144.147 57.7805Z" fill="#9BDFFF"/>
<path d="M142.873 59.428C142.874 59.9112 142.88 68.2837 142.88 68.2837C142.88 68.7291 143.242 69.09 143.687 69.0896C144.132 69.0892 144.493 68.7278 144.493 68.2825L144.492 67.2821C144.492 67.2821 144.998 64.6228 148.326 64.8144C148.326 64.8144 144.538 65.2947 144.415 65.3357C144.293 65.3771 142.873 58.9449 142.873 59.428Z" fill="#C0EDFF"/>
<path d="M143.688 70.3641C144.835 70.3633 145.768 69.4295 145.767 68.2821C145.767 68.2821 145.727 67.5951 145.889 67.1688C146.142 66.501 146.902 66.08 148.486 66.0787L148.326 63.8807C147.479 63.8303 146.82 63.5969 146.203 63.8019C145.855 63.847 145.566 63.8847 145.325 63.9176C145.163 63.2733 144.958 62.4211 144.801 61.7678C144.634 61.0736 143.538 60.5259 143.413 60.0285C143.189 59.1365 143.872 58.0022 142.728 58.1374L141.603 58.271L141.606 68.2853C141.607 69.4323 142.541 70.3649 143.688 70.3641Z" fill="#9BDFFF"/>
<path d="M154.132 91.0879L150.469 90.4265L156.159 58.9225C156.206 58.6643 156.452 58.493 156.711 58.5397L159.439 59.0325C159.697 59.0792 159.869 59.3261 159.822 59.5843L154.132 91.0879Z" fill="#88D2FF"/>
<path d="M159.275 62.6117L155.612 61.9503L156.159 58.9228C156.206 58.6645 156.452 58.4932 156.711 58.5399L159.439 59.0328C159.697 59.0795 159.869 59.3263 159.822 59.5845L159.275 62.6117Z" fill="#FE7D90"/>
<g opacity="0.5">
<path d="M155.61 61.9473L155.412 63.0441L159.076 63.7056L159.274 62.6088L155.61 61.9473Z" fill="#599FD2"/>
</g>
<path d="M169.739 65.9691L163.762 63.6129L151.014 95.9525L156.992 98.3087L169.739 65.9691Z" fill="#C3ECFE"/>
<path d="M167.363 66.246L169.334 67.0226" stroke="#CCF3FF" stroke-width="1.393" stroke-miterlimit="10"/>
<path d="M166.702 67.926L168.671 68.7023" stroke="#CCF3FF" stroke-width="1.393" stroke-miterlimit="10"/>
<path d="M166.039 69.6056L168.009 70.3823" stroke="#CCF3FF" stroke-width="1.393" stroke-miterlimit="10"/>
<path d="M164.413 70.9056L167.347 72.0623" stroke="#CCF3FF" stroke-width="1.393" stroke-miterlimit="10"/>
<path d="M164.715 72.9653L166.685 73.742" stroke="#CCF3FF" stroke-width="1.393" stroke-miterlimit="10"/>
<path d="M164.053 74.6453L166.023 75.4219" stroke="#CCF3FF" stroke-width="1.393" stroke-miterlimit="10"/>
<path d="M163.391 76.3253L165.361 77.1016" stroke="#CCF3FF" stroke-width="1.393" stroke-miterlimit="10"/>
<path d="M161.765 77.6254L164.699 78.7817" stroke="#CCF3FF" stroke-width="1.393" stroke-miterlimit="10"/>
<path d="M162.067 79.6849L164.037 80.4616" stroke="#CCF3FF" stroke-width="1.393" stroke-miterlimit="10"/>
<path d="M161.404 81.365L163.375 82.1413" stroke="#CCF3FF" stroke-width="1.393" stroke-miterlimit="10"/>
<path d="M160.742 83.0447L162.713 83.8214" stroke="#CCF3FF" stroke-width="1.393" stroke-miterlimit="10"/>
<path d="M159.116 84.3446L162.05 85.5013" stroke="#CCF3FF" stroke-width="1.393" stroke-miterlimit="10"/>
<path d="M159.418 86.4043L161.388 87.181" stroke="#CCF3FF" stroke-width="1.393" stroke-miterlimit="10"/>
<path d="M158.756 88.0844L160.726 88.861" stroke="#CCF3FF" stroke-width="1.393" stroke-miterlimit="10"/>
<path d="M158.094 89.7643L160.064 90.5406" stroke="#CCF3FF" stroke-width="1.393" stroke-miterlimit="10"/>
<path d="M156.468 91.0643L159.402 92.2206" stroke="#CCF3FF" stroke-width="1.393" stroke-miterlimit="10"/>
<path d="M156.77 93.124L158.74 93.9003" stroke="#CCF3FF" stroke-width="1.393" stroke-miterlimit="10"/>
<path d="M156.107 94.8036L158.078 95.5803" stroke="#CCF3FF" stroke-width="1.393" stroke-miterlimit="10"/>
<path d="M155.445 96.4836L157.416 97.2603" stroke="#CCF3FF" stroke-width="1.393" stroke-miterlimit="10"/>
<path d="M161.37 127.837H131.562L126.556 82.7455C126.492 82.1722 126.941 81.6708 127.518 81.6708H165.415C165.992 81.6708 166.44 82.1722 166.377 82.7455L161.37 127.837Z" fill="#9BDFFF"/>
<path d="M123.992 129.802C141.946 130.047 159.899 130.292 177.854 130.536C178.456 130.544 180.355 129.957 177.083 127.846C174.311 126.059 165.551 127.667 165.551 127.667C165.551 127.667 167.59 126.849 167.58 125.794C167.571 124.739 166.771 123.812 165.811 123.374C164.851 122.936 163.757 122.905 162.704 122.965C160.56 123.088 158.437 123.563 156.446 124.365C157.29 123.846 157.548 122.571 156.972 121.764C156.395 120.957 155.106 120.788 154.341 121.418C155.686 119.596 157.767 111.521 151.373 107.961C143.36 103.5 137.274 107.171 135.975 109.856C135.317 107.221 132.293 105.225 130.302 104.731C125.76 103.603 122.801 103.937 118.56 105.917C117.06 106.618 115.052 109.01 114.055 110.332C112.493 112.402 112.249 115.154 112.164 117.746C112.099 119.691 112.09 121.638 112.137 123.583" fill="#CCF3FF"/>
<path opacity="0.4" d="M134.483 132.672C134.483 133.603 116.401 134.358 94.0941 134.358C71.7877 134.358 53.7048 133.603 53.7048 132.672C53.7048 131.741 71.7877 130.987 94.0941 130.987C116.401 130.987 134.483 131.742 134.483 132.672Z" fill="#A1D7E5"/>
<path d="M94.8631 15.1127C92.6244 15.1127 90.81 16.9275 90.81 19.1658V24.3605H98.9166C98.9166 24.3605 98.9166 20.2348 98.9166 19.1658C98.9166 16.9275 97.1018 15.1127 94.8631 15.1127ZM94.8631 21.4921C93.6073 21.4921 92.5891 20.4739 92.5891 19.2181C92.5891 17.9624 93.6069 16.9441 94.8631 16.9441C96.1193 16.9441 97.1371 17.9624 97.1371 19.2181C97.1375 20.4743 96.1193 21.4921 94.8631 21.4921Z" fill="#E8505B"/>
<g opacity="0.45">
<path d="M97.1375 19.2182C97.1375 17.9624 96.1193 16.9442 94.8635 16.9442C94.7466 16.9442 94.6341 16.9616 94.5221 16.9787C94.8635 16.8467 94.8806 16.7578 95.4449 16.7578C96.7007 16.7578 97.7189 17.7761 97.7189 19.0318C97.7189 20.1706 97.1379 20.7878 96.2601 21.0131C96.7469 20.5957 97.1375 19.91 97.1375 19.2182ZM92.0483 23.8421V18.6473C92.0483 17.2373 92.6601 15.997 93.7523 15.2706C92.0544 15.7542 90.81 17.3132 90.81 19.1658V24.3606H98.9166C98.9166 24.3606 98.9166 24.158 98.9166 23.8421H92.0483Z" fill="#B03D44"/>
</g>
<path d="M128.339 132.654H59.8497C57.6654 132.654 55.8944 130.883 55.8944 128.699V28.5887C55.8944 26.4044 57.665 24.6334 59.8497 24.6334H128.338C130.522 24.6334 132.293 26.404 132.293 28.5887V128.699C132.293 130.883 130.523 132.654 128.339 132.654Z" fill="#3E89CC"/>
<path d="M127.865 28.8704H60.3226V128.418H127.865V28.8704Z" fill="#C3ECFE"/>
<path d="M125.268 31.9114H62.9198V125.376H125.268V31.9114Z" fill="white"/>
<path d="M118.666 26.4218V30.4818H69.5201V26.4218C69.5201 26.1254 69.5648 25.8412 69.6501 25.5732C70.0114 24.4121 71.0954 23.5717 72.3703 23.5717H115.816C117.392 23.5717 118.666 24.8465 118.666 26.4218Z" fill="#E8505B"/>
<path opacity="0.45" d="M118.666 29.4668V30.4818H69.5201V27.5423C69.5201 26.7547 69.5648 26.1051 69.6501 25.5732C70.0114 24.4121 71.0954 23.5717 72.3703 23.5717H72.7194C71.9683 24.2943 71.4202 25.3987 71.4202 26.5273V29.4668H118.666Z" fill="#B03D44"/>
<g opacity="0.15">
<path d="M80.2105 41.8478H90.3382" stroke="#0964AF" stroke-width="3.1215" stroke-miterlimit="10" stroke-linecap="round" stroke-linejoin="round"/>
<path d="M113.066 45.0763H120.766" stroke="#0964AF" stroke-width="3.1215" stroke-miterlimit="10" stroke-linecap="round" stroke-linejoin="round"/>
<path d="M80.2105 45.0763H109.729" stroke="#0964AF" stroke-width="3.1215" stroke-miterlimit="10" stroke-linecap="round" stroke-linejoin="round"/>
<path d="M80.2105 48.3052H120.766" stroke="#0964AF" stroke-width="3.1215" stroke-miterlimit="10" stroke-linecap="round" stroke-linejoin="round"/>
<path d="M107.875 51.5342H120.766" stroke="#0964AF" stroke-width="3.1215" stroke-miterlimit="10" stroke-linecap="round" stroke-linejoin="round"/>
<path d="M80.2105 51.5342H104.667" stroke="#0964AF" stroke-width="3.1215" stroke-miterlimit="10" stroke-linecap="round" stroke-linejoin="round"/>
<path d="M93.6617 41.8478H120.766" stroke="#0964AF" stroke-width="3.1215" stroke-miterlimit="10" stroke-linecap="round" stroke-linejoin="round"/>
</g>
<g opacity="0.15">
<path d="M80.2105 65.0585H90.3382" stroke="#0964AF" stroke-width="3.1215" stroke-miterlimit="10" stroke-linecap="round" stroke-linejoin="round"/>
<path d="M113.066 68.2874H120.766" stroke="#0964AF" stroke-width="3.1215" stroke-miterlimit="10" stroke-linecap="round" stroke-linejoin="round"/>
<path d="M80.2105 68.2874H109.729" stroke="#0964AF" stroke-width="3.1215" stroke-miterlimit="10" stroke-linecap="round" stroke-linejoin="round"/>
<path d="M80.2105 71.5164H120.766" stroke="#0964AF" stroke-width="3.1215" stroke-miterlimit="10" stroke-linecap="round" stroke-linejoin="round"/>
<path d="M107.875 74.7452H120.766" stroke="#0964AF" stroke-width="3.1215" stroke-miterlimit="10" stroke-linecap="round" stroke-linejoin="round"/>
<path d="M80.2105 74.7452H104.667" stroke="#0964AF" stroke-width="3.1215" stroke-miterlimit="10" stroke-linecap="round" stroke-linejoin="round"/>
<path d="M93.6617 65.0585H120.766" stroke="#0964AF" stroke-width="3.1215" stroke-miterlimit="10" stroke-linecap="round" stroke-linejoin="round"/>
</g>
<g opacity="0.15">
<path d="M80.2105 87.4574H90.3382" stroke="#0964AF" stroke-width="3.1215" stroke-miterlimit="10" stroke-linecap="round" stroke-linejoin="round"/>
<path d="M113.066 90.6863H120.766" stroke="#0964AF" stroke-width="3.1215" stroke-miterlimit="10" stroke-linecap="round" stroke-linejoin="round"/>
<path d="M80.2105 90.6863H109.729" stroke="#0964AF" stroke-width="3.1215" stroke-miterlimit="10" stroke-linecap="round" stroke-linejoin="round"/>
<path d="M80.2105 93.9153H120.766" stroke="#0964AF" stroke-width="3.1215" stroke-miterlimit="10" stroke-linecap="round" stroke-linejoin="round"/>
<path d="M107.875 97.1437H120.766" stroke="#0964AF" stroke-width="3.1215" stroke-miterlimit="10" stroke-linecap="round" stroke-linejoin="round"/>
<path d="M80.2105 97.1437H104.667" stroke="#0964AF" stroke-width="3.1215" stroke-miterlimit="10" stroke-linecap="round" stroke-linejoin="round"/>
<path d="M93.6617 87.4574H120.766" stroke="#0964AF" stroke-width="3.1215" stroke-miterlimit="10" stroke-linecap="round" stroke-linejoin="round"/>
</g>
<g opacity="0.15">
<path d="M80.2105 110.262H90.3382" stroke="#0964AF" stroke-width="3.1215" stroke-miterlimit="10" stroke-linecap="round" stroke-linejoin="round"/>
<path d="M113.066 113.491H120.766" stroke="#0964AF" stroke-width="3.1215" stroke-miterlimit="10" stroke-linecap="round" stroke-linejoin="round"/>
<path d="M80.2105 113.491H109.729" stroke="#0964AF" stroke-width="3.1215" stroke-miterlimit="10" stroke-linecap="round" stroke-linejoin="round"/>
<path d="M80.2105 116.72H120.766" stroke="#0964AF" stroke-width="3.1215" stroke-miterlimit="10" stroke-linecap="round" stroke-linejoin="round"/>
<path d="M107.875 119.949H120.766" stroke="#0964AF" stroke-width="3.1215" stroke-miterlimit="10" stroke-linecap="round" stroke-linejoin="round"/>
<path d="M80.2105 119.949H104.667" stroke="#0964AF" stroke-width="3.1215" stroke-miterlimit="10" stroke-linecap="round" stroke-linejoin="round"/>
<path d="M93.6617 110.262H120.766" stroke="#0964AF" stroke-width="3.1215" stroke-miterlimit="10" stroke-linecap="round" stroke-linejoin="round"/>
</g>
<path d="M75.9374 50.1579H68.3594C67.888 50.1579 67.506 49.7758 67.506 49.3045V41.7265C67.506 41.2551 67.888 40.873 68.3594 40.873H75.937C76.4083 40.873 76.7904 41.2551 76.7904 41.7265V49.3045C76.7908 49.7758 76.4087 50.1579 75.9374 50.1579Z" stroke="#2396B5" stroke-width="1.1566" stroke-miterlimit="10"/>
<path d="M75.9374 73.2934H68.3598C67.8885 73.2934 67.5064 72.9113 67.5064 72.4399V64.862C67.5064 64.3906 67.8885 64.0085 68.3598 64.0085H75.9374C76.4088 64.0085 76.7908 64.3906 76.7908 64.862V72.4399C76.7908 72.9113 76.4088 73.2934 75.9374 73.2934Z" stroke="#2396B5" stroke-width="1.1566" stroke-miterlimit="10"/>
<path d="M75.9374 96.4288H68.3598C67.8885 96.4288 67.5064 96.0468 67.5064 95.5754V87.9978C67.5064 87.5265 67.8885 87.1444 68.3598 87.1444H75.9374C76.4088 87.1444 76.7908 87.5265 76.7908 87.9978V95.5754C76.7908 96.0468 76.4088 96.4288 75.9374 96.4288Z" stroke="#2396B5" stroke-width="1.1566" stroke-miterlimit="10"/>
<path d="M75.9374 119.564H68.3594C67.888 119.564 67.506 119.182 67.506 118.711V111.133C67.506 110.662 67.888 110.28 68.3594 110.28H75.937C76.4083 110.28 76.7904 110.662 76.7904 111.133V118.711C76.7908 119.182 76.4087 119.564 75.9374 119.564Z" stroke="#2396B5" stroke-width="1.1566" stroke-miterlimit="10"/>
<path d="M68.6489 43.8811L72.1486 48.1075L78.8821 37.4829" stroke="#FFA829" stroke-width="3.4699" stroke-miterlimit="10" stroke-linecap="round" stroke-linejoin="round"/>
<path d="M68.6489 66.8242L72.1486 71.0506L78.8821 60.426" stroke="#FFA829" stroke-width="3.4699" stroke-miterlimit="10" stroke-linecap="round" stroke-linejoin="round"/>
<path d="M42.8448 73.5609C42.8448 73.5609 43.0193 74.7196 43.1298 74.8207C43.1298 74.8207 43.0189 75.014 42.688 75.0323" fill="#FFB392"/>
<path opacity="0.4" d="M51.5263 132.764C51.5263 133.246 47.1902 133.636 41.8415 133.636C36.4929 133.636 32.1568 133.246 32.1568 132.764C32.1568 132.282 36.4929 131.892 41.8415 131.892C47.1902 131.892 51.5263 132.283 51.5263 132.764Z" fill="#A1D7E5"/>
<path d="M46.2661 78.9701L44.1256 88.3714C44.0672 88.6276 44.2401 88.8794 44.5004 88.9167L51.1624 89.8732C51.3943 89.9065 51.6131 89.7563 51.6651 89.5277L53.8055 80.1264C53.864 79.8702 53.691 79.6185 53.4308 79.5811L46.7687 78.6246C46.5369 78.5913 46.318 78.7415 46.2661 78.9701Z" fill="#57C6F2"/>
<path d="M46.683 79.2734L44.6335 88.2745L51.2485 89.2245L53.2976 80.2231L46.683 79.2734Z" fill="#E5F8FF"/>
<path d="M52.5968 80.8865L46.9758 80.0793" stroke="#A1D2F0" stroke-width="0.5742" stroke-miterlimit="10" stroke-linecap="round" stroke-linejoin="round"/>
<path d="M52.4076 81.737L46.7866 80.9299" stroke="#A1D2F0" stroke-width="0.5742" stroke-miterlimit="10" stroke-linecap="round" stroke-linejoin="round"/>
<path d="M50.0675 82.4422L46.5547 81.938" stroke="#A1D2F0" stroke-width="0.5742" stroke-miterlimit="10" stroke-linecap="round" stroke-linejoin="round"/>
<path d="M49.8178 83.1738L46.3051 82.6692" stroke="#A1D2F0" stroke-width="0.5742" stroke-miterlimit="10" stroke-linecap="round" stroke-linejoin="round"/>
<path d="M49.5681 83.9051L46.0554 83.4004" stroke="#A1D2F0" stroke-width="0.5742" stroke-miterlimit="10" stroke-linecap="round" stroke-linejoin="round"/>
<path d="M50.8563 87.9464L47.3432 87.4418" stroke="#A1D2F0" stroke-width="0.5742" stroke-miterlimit="10" stroke-linecap="round" stroke-linejoin="round"/>
<path d="M43.7026 88.4838C44.0798 88.306 44.3603 87.9772 44.6287 87.6576C44.8934 87.3426 45.1581 87.0275 45.4228 86.7125C45.5272 86.5882 45.6368 86.4522 45.6486 86.2902C45.2048 86.2541 44.919 86.8306 44.4752 86.8647C44.6819 86.1339 44.9787 85.4291 45.3567 84.7706C45.4488 84.6098 45.5491 84.4226 45.4837 84.2493C45.0043 84.4324 44.6003 84.7734 44.2507 85.1498C44.0051 85.4141 43.7814 85.6987 43.5824 85.9995C42.9966 86.8858 42.634 87.9033 42.3868 88.9365" fill="#F2A181"/>
<path d="M41.7928 96.0562L37.0361 92.0428C37.0361 92.0428 34.8222 95.0452 35.6561 97.942C36.0662 99.3663 36.581 100.073 36.8047 100.749C37.0134 101.38 38.4453 110.318 38.3385 110.971C38.2318 111.625 37.4628 113.453 37.1697 115.376C36.8169 117.688 36.8765 125.222 36.6029 127.22C36.3292 129.218 38.1741 129.556 38.2756 128.88C39.1428 123.103 41.4331 114.102 41.7534 111.214C42.0737 108.325 41.9438 103.037 41.7928 96.0562Z" fill="#FFBE9D"/>
<path d="M41.8066 101.748L39.738 106.495C40.6101 107.969 41.1144 109.708 41.1814 111.471C41.2159 112.387 41.1355 113.304 41.1607 114.22C41.1623 114.285 41.1716 114.355 41.1887 114.42C41.466 113.062 41.6726 111.943 41.7534 111.214C41.98 109.174 41.9812 105.93 41.9093 101.743C41.8748 101.745 41.8411 101.743 41.8066 101.748Z" fill="#F2A181"/>
<path d="M38.5959 127.025C38.5959 127.025 38.153 129.121 38.2724 129.388C38.3917 129.655 38.82 130.431 39.2589 130.712C39.7193 131.006 40.7392 131.357 40.8208 131.484C40.9024 131.612 40.9077 131.798 40.7623 131.912C40.3868 132.207 39.7348 132.351 39.3085 132.281C37.9256 132.053 37.7827 131.441 36.9772 131.343C36.8384 131.326 36.5806 131.532 36.1957 131.335C35.8108 131.138 35.624 130.783 35.6569 130.448C35.7141 129.871 36.0381 129.395 36.2691 128.968C36.5002 128.541 36.6626 126.587 36.6626 126.587" fill="#FFBE9D"/>
<path d="M40.87 132.013C40.9706 131.841 40.9966 131.58 40.9024 131.516C40.7725 131.427 40.3097 131.121 40.0417 130.998C39.7734 130.874 39.3483 130.765 39.4981 130.846C39.6479 130.927 39.3722 131.23 39.1209 131.215C38.2541 131.161 37.6151 130.586 37.1214 130.462C36.4088 130.284 36.1104 129.442 36.0792 129.306C35.9444 129.392 35.6309 130.069 35.5676 130.282C35.5103 130.474 35.4072 130.826 35.462 131.027C35.4998 131.165 35.5838 131.444 35.5412 131.737C35.5412 131.737 35.6817 131.845 36.0536 131.922C36.2891 131.971 36.6049 131.93 36.6049 131.93L36.6662 131.483C36.6662 131.483 36.8603 131.475 37.1071 131.526C37.354 131.577 37.7567 131.812 37.7807 131.841C37.8798 131.959 37.9589 132.174 38.0897 132.24C38.436 132.415 38.7851 132.498 39.2265 132.524C40.1554 132.578 40.6978 132.308 40.87 132.013Z" fill="#1B227A"/>
<path d="M48.2884 131.926C48.1861 131.813 47.0842 131.634 46.5673 131.418C46.0749 131.212 45.4784 130.551 45.3623 130.27C45.2462 129.99 45.273 128.567 45.2876 127.97C45.3907 123.857 46.1508 113.805 46.2608 111.398C46.452 107.214 45.9088 102.896 44.299 96.1788L38.3048 91.5784C38.3048 91.5784 36.626 94.6993 37.1883 97.683C37.5143 99.4142 38.9504 99.6805 39.1932 100.353C39.4359 101.026 43.0627 111.874 43.0627 111.874C43.0627 111.874 42.3571 114.219 42.3161 116.789C42.2812 118.982 43.2759 125.598 43.4602 128.118C43.4821 128.611 43.5666 129.79 43.4216 130.165C43.2438 130.625 42.7903 131.166 42.8135 131.746C42.8264 132.082 43.0696 132.403 43.4947 132.535C43.9194 132.667 44.1561 132.421 44.3023 132.415C45.1471 132.38 45.3814 132.961 46.8406 132.961C47.2904 132.961 47.9429 132.712 48.2888 132.359C48.4219 132.222 48.3903 132.039 48.2884 131.926Z" fill="#FFBE9D"/>
<path d="M48.4138 132.441C48.4934 132.254 48.4829 131.992 48.3773 131.944C48.2307 131.878 47.7102 131.651 47.4159 131.573C47.1215 131.494 46.6676 131.457 46.8337 131.512C46.9997 131.568 46.7578 131.912 46.4967 131.938C45.595 132.027 44.854 131.562 44.327 131.521C43.5666 131.461 43.2877 130.678 43.2357 130.549C43.1086 130.655 42.7335 131.376 42.6978 131.597C42.6657 131.797 42.6093 132.162 42.6941 132.351C42.753 132.482 42.8788 132.744 42.876 133.041C42.876 133.041 43.036 133.124 43.4306 133.139C43.6803 133.149 44.001 133.057 44.001 133.057V132.604C44.001 132.604 44.2 132.565 44.4618 132.575C44.7237 132.585 45.0469 132.719 45.2052 132.838C45.3291 132.931 45.4594 133.088 45.6055 133.125C46.0274 133.231 46.3307 133.261 46.7894 133.215C47.7561 133.116 48.2778 132.761 48.4138 132.441Z" fill="#1B227A"/>
<path d="M37.1615 91.5381C36.7547 91.9847 35.3049 94.4008 35.2895 96.3671C35.274 98.3334 35.9009 99.6123 36.0365 100.005C36.4076 101.08 37.0982 102.041 37.0982 102.237C37.0982 102.434 38.179 102.57 40.4721 102.425C44.7087 102.159 46.2653 101.364 46.2653 101.364C46.2653 101.364 46.4037 99.6013 45.9693 95.7772C45.763 93.9611 44.2166 91.0854 44.2166 91.0854" fill="#1B227A"/>
<path d="M33.296 83.6817C33.296 83.6817 33.9785 87.0722 34.1576 87.6755C34.3366 88.2788 35.2221 92.1099 36.0609 92.0433C36.9001 91.9767 41.4956 88.14 41.4956 88.14L40.8448 86.8383L36.7998 88.7668C36.7998 88.7668 36.4344 84.3877 36.1137 83.3447" fill="#FFBE9D"/>
<path d="M34.8599 85.7686C35.2878 87.2821 36.1656 88.8773 36.4283 90.051C36.4811 90.2869 39.2821 89.2683 39.2886 88.2163" fill="#F2A181"/>
<path d="M36.0365 78.9823C36.0365 78.9823 34.6951 79.1252 34.0151 79.6457C32.2806 80.9725 33.6229 85.7897 33.6229 85.7897C33.6229 85.7897 33.5372 86.0467 34.7016 85.9813C35.866 85.916 36.7994 85.5847 36.7994 85.5847L36.4628 81.6379" fill="#E8505B"/>
<path d="M34.501 81.7094C34.501 81.7094 34.3541 84.5412 34.8664 85.9703C35.3735 85.9602 35.8165 85.8457 35.8165 85.8457L34.501 81.7094Z" fill="#B03D44"/>
<path d="M42.4472 70.0949C43.2556 71.1428 43.0956 72.617 42.8963 73.9251C42.7956 74.5865 42.6949 75.2483 42.5938 75.9096C42.5459 76.2239 42.4822 76.5674 42.2373 76.77C41.9905 76.9746 41.6373 76.9709 41.3173 76.9571C41.3206 77.5044 41.3238 78.0521 41.3271 78.5998C40.3904 78.6225 39.4534 78.6262 38.5168 78.6112C38.5163 78.2279 38.4327 77.8446 38.2736 77.4959C37.8152 77.487 37.5091 77.0274 37.3296 76.6055C37.1226 76.1191 36.9719 75.6108 36.8266 75.1029C36.6333 74.4286 36.447 73.7436 36.4295 73.0421C36.4116 72.3409 36.5785 71.6117 37.0239 71.0697C37.3276 70.7003 37.7417 70.438 38.1656 70.2167C38.7466 69.9134 39.4445 69.6743 40.0437 69.9398" fill="#FFBE9D"/>
<path d="M41.4782 75.0875C41.3673 74.5369 41.3754 74.2268 41.5557 73.8601C41.6154 73.7388 41.6942 73.6243 41.8017 73.5487C41.9475 73.4464 42.1412 73.4265 42.3023 73.4968C42.4075 73.5427 42.4944 73.6283 42.5541 73.7314C42.7453 72.9921 42.7851 72.2041 42.7299 71.4363C42.6426 70.2187 41.9085 69.2776 40.8367 68.8371C38.8526 68.0219 36.0016 68.8274 35.1961 70.775C34.5875 72.2459 34.8961 74.3693 36.0613 75.6023C37.093 76.694 38.5765 76.8544 39.9459 76.6295C40.6467 76.5146 41.7278 76.5836 42.0904 75.6307C42.1184 75.5572 42.0555 75.4837 41.9808 75.4894C41.6962 75.5113 41.4985 75.1894 41.4782 75.0875Z" fill="#1B227A"/>
<path d="M41.6304 72.4976C41.7043 72.6133 41.6868 72.7684 41.7559 72.887C41.872 73.0855 42.0267 73.1574 42.2353 73.2544C42.5719 73.4107 42.4932 73.9008 42.4834 74.12C42.7376 73.9511 42.7786 73.4911 42.8399 73.2577C42.9089 72.9954 42.9527 72.7262 43.0291 72.466C43.1034 72.213 43.2321 71.9743 43.256 71.708C43.3384 70.788 42.7611 69.7068 42.0636 69.1904C41.5557 68.8144 40.7806 68.8298 40.207 69.2123C39.9654 69.3735 39.7839 69.6167 39.6767 69.8866C39.6309 70.0024 39.5992 70.1376 39.656 70.2484" fill="#1B227A"/>
<path d="M37.1213 78.9944C37.1688 78.6737 37.2557 78.2998 37.5541 78.1731C37.637 78.1382 37.7279 78.1272 37.8176 78.1171C38.7315 78.016 39.6515 77.9725 40.5707 77.9871C40.9511 77.9932 41.3445 78.0127 41.6848 78.1824C42.2183 78.4492 42.5118 79.0241 42.7696 79.562" fill="#B03D44"/>
<path d="M44.863 90.7502C44.7351 90.561 44.4403 90.3353 44.3344 90.127C44.0806 89.628 43.8585 87.5261 43.9458 86.9894C44.0392 86.4137 44.5487 86.1043 44.7785 84.8234C45.0745 83.1734 44.3981 81.8909 44.0197 81.3415C43.485 80.5649 43.8021 80.5693 43.619 79.6177C43.5861 79.4463 43.5475 79.2632 43.4302 79.1439C43.3145 79.0261 42.5175 78.662 42.3612 78.6376C40.8752 78.4074 40.0015 78.5872 38.4993 78.653C37.7563 78.6855 37.0142 78.7724 36.2846 78.9332C35.4771 79.1114 34.7735 79.3254 34.6074 80.4211C34.3504 82.1162 34.5664 83.8295 35.0816 85.4373C35.4231 86.5026 37.4624 90.1891 36.9569 90.9024C36.8416 91.0657 36.5526 91.375 36.5176 91.5784C36.3897 92.3234 38.073 92.5853 38.7937 92.6446C39.8911 92.7347 41.1509 92.6742 42.2512 92.6227C43.0847 92.5837 44.908 92.2926 45.0375 91.263C45.0627 91.0612 44.9628 90.898 44.863 90.7502Z" fill="#E8505B"/>
<path d="M44.5459 85.1425C44.5463 85.4421 44.3786 85.8441 44.3246 86.002C44.1155 86.1096 43.2864 86.2879 42.8106 86.0706C42.7063 85.0804 42.1261 83.1738 42.1261 83.1738C42.1261 83.1738 44.5455 84.8652 44.5459 85.1425Z" fill="#B03D44"/>
<path d="M43.4813 84.4515C43.4813 84.4515 46.2263 91.0852 47.4175 91.0852C48.2839 91.0852 50.4081 84.9615 50.4081 84.9615L49.0659 84.3261L47.5689 86.8908L46.0533 82.1073" fill="#FFBE9D"/>
<path d="M48.7991 84.7828C48.7991 84.7828 49.2441 84.0821 49.2116 83.5851C49.199 83.3955 49.0866 82.4938 49.1808 82.3164C49.275 82.139 49.5007 81.5588 49.6294 81.4459C49.7585 81.3331 50.2352 81.1516 50.3517 81.2324C50.4682 81.3132 50.6136 80.9421 50.8068 80.9746C51.0001 81.0066 51.1612 81.1678 51.1612 81.3452C51.1612 81.5227 51.4191 81.5547 51.4515 81.6838C51.4836 81.8129 51.4678 81.9258 51.5161 82.0224C51.5644 82.1191 51.7069 82.0712 51.7581 82.3127C51.8048 82.5336 51.7418 82.5547 51.7581 82.6672C51.7743 82.78 51.8709 82.7695 51.8389 82.9843C51.8068 83.199 51.6594 83.478 51.5307 83.7195C51.4016 83.9611 51.1353 84.264 50.782 84.4775C50.6075 84.5831 50.512 84.7674 50.3456 85.0804" fill="#FFBE9D"/>
<path d="M49.5368 79.6567C49.5027 79.6039 49.4093 79.5154 49.3001 79.5925C49.1905 79.6697 49.2238 79.8024 49.2473 79.856C49.2713 79.9096 50.0589 81.6928 50.0589 81.6928C50.0589 81.6928 50.1247 81.7683 50.2502 81.6578C50.3866 81.5377 50.3427 81.4776 50.3427 81.4776C50.3427 81.4776 49.5705 79.7094 49.5368 79.6567Z" fill="#1B227A"/>
<path d="M50.3918 81.3599C50.2371 81.6355 50.0585 81.724 49.8969 81.8759C49.7706 81.9948 49.7861 82.0712 49.6472 82.1934C49.8912 82.1751 49.8494 82.031 50.1661 81.8028C50.3127 81.6972 50.4641 81.5824 50.4929 81.4025C50.5027 81.3404 50.4292 81.3071 50.3918 81.3599Z" fill="#F2A181"/>
<path d="M40.9564 78.5357C41.6714 78.5726 43.7525 78.2076 44.9088 79.4175C45.8775 80.4309 46.433 83.0877 46.8227 84.1652C45.852 85.1547 44.9169 85.9525 43.4464 85.6313C43.3908 85.5899 42.6612 83.2936 42.1302 83.0893" fill="#E8505B"/>
<path d="M46.2689 99.6009C46.2689 99.6009 46.7411 110.95 46.655 111.778C46.569 112.605 45.6482 128.275 45.6482 128.275C45.6482 128.275 43.7574 128.606 42.6251 128.275C42.6251 128.275 41.1643 116.072 42.6251 112.27L41.9759 108.626C41.9759 108.626 42.0729 111.336 41.9759 111.888C41.8793 112.44 38.9573 127.889 38.9573 127.889C38.9573 127.889 37.0239 127.837 36.1413 127.063C36.1413 127.063 35.866 116.329 37.8798 111.815L36.0369 100.004L37.0986 96.9993L46.2689 99.6009Z" fill="#1B227A"/>
<path d="M41.9759 108.626C41.7059 106.881 40.0405 100.69 39.9694 100.541C39.0588 99.8352 38.2269 99.2132 37.924 98.6249C38.4214 100.118 39.3795 100.195 39.738 100.968C40.6235 102.875 39.9471 102.454 42.0149 108.845" fill="#170D54"/>
<path d="M33.8441 78.4601C33.8015 79.0638 33.9249 79.6672 33.9347 80.2725C33.9444 80.8778 33.8145 81.5307 33.3699 81.9416C32.9253 82.3524 32.1004 82.3687 31.7845 81.8523C32.104 82.5197 32.7922 82.9688 33.5205 83.1011C34.2485 83.2335 35.0081 83.0763 35.6809 82.7682C37.4689 81.9489 38.6597 80.0752 38.6041 78.1041C38.5586 76.4837 37.328 74.9178 35.6094 75.7696C34.6021 76.2689 33.9229 77.3473 33.8441 78.4601Z" fill="#1B227A"/>
</svg>
